# xmcd
# 
# Track frame offsets:
#     182
#     12782
#     24727
#     34657
#     48482
#     60000
#     71712
#     93382
#     104317
#     117502
#     129390
#     142715
#     155257
#     166750
# 
# Disc length: 2425
# 
# Revision: 1
# Processed by: cddbd v1.5.2PL0 Copyright (c) Steve Scherf et al.
# Submitted via: fre:ac v1.0.31
# 
DISCID=a809770e
DTITLE=Roots of Rhythm - That's The Way Love Is
DYEAR=2000
DGENRE=R&B
TTITLE0=Tyrone Davis/ Can I Change My Mind
TTITLE1=Bobby Bland/That's the Way Love Is
TTITLE2=The Drifters/There Goes My Baby
TTITLE3=Dinah Washington/Baby Get Lost
TTITLE4=Jackie Wilson/Lonely Teardrops
TTITLE5=Clyde McPhatter/A Lover's Question
TTITLE6=Bobby Marchan/There's Something On Your Mind
TTITLE7=Barbara George/I Know (You Don't Love Me No More)
TTITLE8=Freda Payne/Band of Gold
TTITLE9=Tommy Edwards/It's All in the Game
TTITLE10=Mickey and Sylvia/Love is Strange
TTITLE11=Betty Wright/Clean Up Woman
TTITLE12=Maxine Brown/All in My Mind
TTITLE13=The Persuaders/Thin Line Between Love and Hate
EXTD=
EXTT0=
EXTT1=
EXTT2=
EXTT3=
EXTT4=
EXTT5=
EXTT6=
EXTT7=
EXTT8=
EXTT9=
EXTT10=
EXTT11=
EXTT12=
EXTT13=
PLAYORDER=
